# xmcd
#
# Track frame offsets: 
#        150
#        37641
#        62152
#        88269
#        121132
#        145065
#        174310
#        214458
#        237344
#
# Disc length: 3524 seconds
#
# Revision: 2
# Processed by: cddbd v1.5.2PL0 Copyright (c) Steve Scherf et al.
# Submitted via: ExactAudioCopy v1.3
#
DISCID=780dc209
DTITLE=Heinz Holliger - Lebrun Mozart  1
DYEAR=1982
DGENRE=Classical
TTITLE0=Ludwig August Lebrun (1752-1790) - Concerto No1 in D minor for
TTITLE0=Oboe and Orchestra - Allegro
TTITLE1=Ludwig August Lebrun (1752-1790) - Concerto No1 in D minor for
TTITLE1=Oboe and Orchestra - Grazioso
TTITLE2=Ludwig August Lebrun (1752-1790) - Concerto No1 in D minor for
TTITLE2=Oboe and Orchestra - Allegro
TTITLE3=Ludwig August Lebrun (1752-1790) - Concerto No2 in G minor for
TTITLE3=Oboe and Orchestra - Allegro
TTITLE4=Ludwig August Lebrun (1752-1790) - Concerto No2 in G minor for
TTITLE4=Oboe and Orchestra - Adagio
TTITLE5=Ludwig August Lebrun (1752-1790) - Concerto No2 in G minor for
TTITLE5=Oboe and Orchestra - Rondo. Allegro
TTITLE6=Ludwig August Lebrun (1752-1790) - Concerto No3 in C major for
TTITLE6=Oboe and Orchestra - Allegro
TTITLE7=Ludwig August Lebrun (1752-1790) - Concerto No3 in C major for
TTITLE7=Oboe and Orchestra - Adagio
TTITLE8=Ludwig August Lebrun (1752-1790) - Concerto No3 in C major for
TTITLE8=Oboe and Orchestra - Rondo. Allegretto
EXTD=YEAR: 1981
EXTT0=
EXTT1=
EXTT2=
EXTT3=
EXTT4=
EXTT5=
EXTT6=
EXTT7=
EXTT8=
PLAYORDER=
